<?xml version="1.0" encoding="UTF-8" standalone="no"?>

<svg
   version="1.1"
   id="svg1"
   width="128"
   height="128"
   viewBox="0 0 127.99999 127.99999"
   xmlns="http://www.w3.org/2000/svg"
   xmlns:svg="http://www.w3.org/2000/svg">
  <defs
     id="defs1">
    <clipPath
       clipPathUnits="userSpaceOnUse"
       id="clipPath3">
      <path
         d="M 0,800 H 800 V 0 H 0 Z"
         transform="translate(-635.38282,-283.251)"
         id="path3" />
    </clipPath>
  </defs>
  <g
     id="g2"
     transform="matrix(0.16895171,0,0,0.2098097,-26.128228,-38.786637)">
    <g
       id="group-MC0"
       style="display:inline">
      <path
         id="path2"
         d="m 0,0 c -32.512,11.025 -66.849,16.761 -101.073,16.761 -40.177,0 -80.229,-7.85 -117.473,-22.848 v 255.258 c 35.962,19.52 76.548,29.846 117.47,29.846 34.742,0 69.386,-7.474 101.076,-21.713 z m -252.22,-6.087 c -37.243,14.998 -77.296,22.848 -117.471,22.848 -34.227,0 -68.562,-5.736 -101.074,-16.761 v 257.304 c 31.69,14.239 66.334,21.713 101.077,21.713 40.92,0 81.507,-10.326 117.468,-29.846 z M 44.109,251.796 c -3.382,1.781 -6.816,3.463 -10.27,5.1 v 16.264 c 0,3.143 -1.741,6.025 -4.523,7.488 -40.067,21.071 -85.156,32.208 -130.392,32.208 -46.807,0 -93.235,-11.868 -134.306,-34.314 -41.073,22.446 -87.499,34.314 -134.306,34.314 -45.238,0 -90.328,-11.137 -130.393,-32.208 -2.781,-1.463 -4.523,-4.345 -4.523,-7.488 v -16.264 c -3.454,-1.637 -6.886,-3.319 -10.271,-5.1 -2.779,-1.462 -4.521,-4.344 -4.521,-7.487 V -66.662 c 0,-2.917 1.5,-5.628 3.976,-7.173 1.365,-0.854 2.921,-1.287 4.484,-1.287 1.263,0 2.532,0.283 3.705,0.854 38.053,18.54 80.499,28.339 122.749,28.339 45.415,0 90.662,-11.221 130.853,-32.449 1.235,-0.654 2.593,-0.98 3.951,-0.98 h 28.591 c 1.358,0 2.714,0.326 3.951,0.98 40.191,21.228 85.44,32.449 130.853,32.449 42.252,0 84.696,-9.799 122.75,-28.339 1.173,-0.571 2.441,-0.854 3.703,-0.854 1.564,0 3.12,0.433 4.485,1.287 2.475,1.545 3.975,4.256 3.975,7.173 v 310.971 c 0,3.143 -1.741,6.025 -4.521,7.487"
         style="fill:#231916;fill-opacity:1;fill-rule:nonzero;stroke:none"
         transform="matrix(1.3333333,0,0,-1.3333333,847.17707,688.99867)"
         clip-path="url(#clipPath3)" />
    </g>
    <g
       id="number-group"
       transform="matrix(1.1982153,0,0,1.1982153,-33.527976,-36.667952)"
       style="display:inline">
      <text
         x="400"
         y="300"
         text-anchor="middle"
         dominant-baseline="central"
         font-family="'Arial Black', sans-serif"
         font-size="250px"
         fill="#18b7cd"
         id="text1">123</text>
      <!-- 数字の影 -->
      <text
         x="400"
         y="300"
         text-anchor="middle"
         dominant-baseline="central"
         font-family="'Arial Black', sans-serif"
         font-size="250px"
         fill="#18b7cd"
         stroke="#ffffff"
         stroke-width="2"
         stroke-linecap="round"
         stroke-linejoin="round"
         id="text2">123</text>
    </g>
  </g>
</svg>